<mxfile host="65bd71144e">
    <diagram id="0CnLZnbaw1M3j7SvvrXN" name="Page-1">
        <mxGraphModel dx="536" dy="488" grid="1" gridSize="10" guides="1" tooltips="1" connect="1" arrows="1" fold="1" page="1" pageScale="1" pageWidth="850" pageHeight="1100" math="0" shadow="0">
            <root>
                <mxCell id="0"/>
                <mxCell id="1" parent="0"/>
                <mxCell id="2" value="Mascota" style="rounded=0;whiteSpace=wrap;html=1;" parent="1" vertex="1">
                    <mxGeometry x="240" y="270" width="160" height="40" as="geometry"/>
                </mxCell>
                <mxCell id="3" value="+ nombre: String&lt;br&gt;+ tipo: String&lt;br&gt;+ raza: String&lt;br&gt;+ edad: int&lt;br&gt;+ estadoMatch: boolean&lt;br&gt;+ propietario: String&lt;br&gt;+observacion: String" style="rounded=0;whiteSpace=wrap;html=1;" parent="1" vertex="1">
                    <mxGeometry x="240" y="310" width="160" height="120" as="geometry"/>
                </mxCell>
                <mxCell id="4" value="TinderPet" style="rounded=0;whiteSpace=wrap;html=1;" parent="1" vertex="1">
                    <mxGeometry x="240" y="120" width="160" height="40" as="geometry"/>
                </mxCell>
                <mxCell id="5" style="edgeStyle=none;html=1;exitX=0.5;exitY=1;exitDx=0;exitDy=0;entryX=0.5;entryY=0;entryDx=0;entryDy=0;" parent="1" source="7" target="2" edge="1">
                    <mxGeometry relative="1" as="geometry"/>
                </mxCell>
                <mxCell id="6" value="" style="rounded=0;whiteSpace=wrap;html=1;" parent="1" vertex="1">
                    <mxGeometry x="240" y="160" width="160" height="10" as="geometry"/>
                </mxCell>
                <mxCell id="7" value="+ menu(): int&lt;br&gt;+ registrarMascota()&lt;br&gt;+ mostrarMascota()&lt;br&gt;+ establecerMatch()" style="rounded=0;whiteSpace=wrap;html=1;" parent="1" vertex="1">
                    <mxGeometry x="240" y="170" width="160" height="60" as="geometry"/>
                </mxCell>
            </root>
        </mxGraphModel>
    </diagram>
</mxfile>